<?xml version="1.0" encoding="UTF-8" standalone="no"?>
<!-- Created with Inkscape (http://www.inkscape.org/) -->

<svg
   xmlns:dc="http://purl.org/dc/elements/1.1/"
   xmlns:cc="http://creativecommons.org/ns#"
   xmlns:rdf="http://www.w3.org/1999/02/22-rdf-syntax-ns#"
   xmlns:svg="http://www.w3.org/2000/svg"
   xmlns="http://www.w3.org/2000/svg"
   xmlns:sodipodi="http://sodipodi.sourceforge.net/DTD/sodipodi-0.dtd"
   xmlns:inkscape="http://www.inkscape.org/namespaces/inkscape"
   width="168.70071mm"
   height="66.91478mm"
   viewBox="0 0 168.70071 66.91478"
   version="1.1"
   id="svg4805"
   inkscape:version="0.92.3 (2405546, 2018-03-11)"
   sodipodi:docname="biglogo.svg">
  <defs
     id="defs4799" />
  <sodipodi:namedview
     id="base"
     pagecolor="#ffffff"
     bordercolor="#666666"
     borderopacity="1.0"
     inkscape:pageopacity="0.0"
     inkscape:pageshadow="2"
     inkscape:zoom="0.35"
     inkscape:cx="-361.19553"
     inkscape:cy="89.310258"
     inkscape:document-units="mm"
     inkscape:current-layer="layer1"
     showgrid="false"
     inkscape:window-width="2060"
     inkscape:window-height="1106"
     inkscape:window-x="1988"
     inkscape:window-y="482"
     inkscape:window-maximized="0"
     fit-margin-top="0"
     fit-margin-left="0"
     fit-margin-right="0"
     fit-margin-bottom="0" />
  <metadata
     id="metadata4802">
    <rdf:RDF>
      <cc:Work
         rdf:about="">
        <dc:format>image/svg+xml</dc:format>
        <dc:type
           rdf:resource="http://purl.org/dc/dcmitype/StillImage" />
        <dc:title></dc:title>
      </cc:Work>
    </rdf:RDF>
  </metadata>
  <g
     inkscape:label="Layer 1"
     inkscape:groupmode="layer"
     id="layer1"
     transform="translate(-21.482984,-105.54856)">
    <g
       id="g3805"
       inkscape:label="Clip"
       transform="matrix(0.54282546,0,0,0.54282546,116.70922,21.107597)"
       inkscape:export-xdpi="26.57"
       inkscape:export-ydpi="26.57"
       inkscape:export-filename="/home/hans/work/RogueRope.github.io/assets/img/logo_176_70.png">
      <path
         style="fill:#000000;fill-opacity:1;stroke:#000000;stroke-width:1.03833818;stroke-miterlimit:4;stroke-dasharray:none;stroke-opacity:1"
         d="M 80.141761,156.0774 A 53.99359,53.99359 0 0 0 44.882725,169.21672 V 156.08016 H 23.921659 v 107.98197 h 20.961066 v -54.8834 a 35.3035,35.3035 0 0 1 35.259036,-34.41127 35.3035,35.3035 0 0 1 29.082669,15.35686 V 164.58486 A 53.99359,53.99359 0 0 0 80.141761,156.0774 Z"
         id="path4266"
         inkscape:connector-curvature="0" />
      <path
         style="fill:#ff0000;fill-opacity:1;stroke:#ff0000;stroke-width:2.07667637;stroke-miterlimit:4;stroke-dasharray:none;stroke-opacity:1"
         d="M 64.84232,210.06977 A 14.536735,14.536735 0 0 0 79.37905,224.60651 14.536735,14.536735 0 0 0 93.915782,210.06977 14.536735,14.536735 0 0 0 79.37905,195.53304 14.536735,14.536735 0 0 0 64.84232,210.06977 Z"
         id="path4258"
         inkscape:connector-curvature="0"
         inkscape:export-filename="C:\Users\fraipoha\Desktop\rect4274-7.png"
         inkscape:export-xdpi="90"
         inkscape:export-ydpi="90" />
      <rect
         style="fill:none;fill-opacity:1;stroke:none;stroke-width:0.70555556;stroke-miterlimit:4;stroke-dasharray:none;stroke-opacity:1"
         id="rect4903"
         width="83.815735"
         height="69.561348"
         x="50.26944"
         y="207.44963" />
      <path
         inkscape:connector-curvature="0"
         style="fill:#000000;fill-opacity:1;stroke:#000000;stroke-width:1.03833818;stroke-miterlimit:4;stroke-dasharray:none;stroke-opacity:1"
         d="m 78.616335,264.06213 a 53.99359,53.99359 0 0 0 35.259035,-13.13932 v 13.13657 h 20.96107 V 156.0774 h -20.96107 v 54.88341 a 35.3035,35.3035 0 0 1 -35.259035,34.41126 35.3035,35.3035 0 0 1 -29.08267,-15.35685 v 25.53945 a 53.99359,53.99359 0 0 0 29.08267,8.50746 z"
         id="path4266-5" />
    </g>
    <g
       id="g3871"
       transform="translate(16.978538,-40.513783)"
       inkscape:export-filename="/home/hans/work/RogueRope.github.io/assets/img/logo_176_70.png"
       inkscape:export-xdpi="26.57"
       inkscape:export-ydpi="26.57">
      <text
         inkscape:export-ydpi="55.27"
         inkscape:export-xdpi="55.27"
         id="text12"
         y="174.16533"
         x="0.90611279"
         style="font-style:normal;font-variant:normal;font-weight:normal;font-stretch:normal;font-size:22.57777786px;line-height:1.25;font-family:Anurati;-inkscape-font-specification:Anurati;letter-spacing:0px;word-spacing:0px;fill:#000000;fill-opacity:1;stroke:none;stroke-width:0.26458332"
         xml:space="preserve"><tspan
           id="tspan3859"
           style="font-style:normal;font-variant:normal;font-weight:normal;font-stretch:normal;font-size:35.98333359px;font-family:Comfortaa;-inkscape-font-specification:Comfortaa;letter-spacing:-2.64583325px;stroke-width:0.26458332"
           y="174.16533"
           x="0.90611279"
           sodipodi:role="line">Rogue</tspan></text>
      <text
         id="text3865"
         y="204.55702"
         x="21.593224"
         style="font-style:normal;font-variant:normal;font-weight:normal;font-stretch:normal;font-size:22.57777786px;line-height:1.25;font-family:Anurati;-inkscape-font-specification:Anurati;letter-spacing:0px;word-spacing:0px;fill:#000000;fill-opacity:1;stroke:none;stroke-width:0.26458332"
         xml:space="preserve"><tspan
           style="font-style:normal;font-variant:normal;font-weight:normal;font-stretch:normal;font-size:35.98333359px;font-family:Comfortaa;-inkscape-font-specification:Comfortaa;letter-spacing:-2.64583325px;stroke-width:0.26458332"
           y="204.55702"
           x="21.593224"
           id="tspan3863"
           sodipodi:role="line">Rope</tspan></text>
    </g>
    <g
       inkscape:export-filename="/home/hans/work/RogueRope.github.io/assets/img/logo_176_70.png"
       inkscape:export-ydpi="26.57"
       inkscape:export-xdpi="26.57"
       transform="matrix(0.54282546,0,0,0.54282546,116.70922,21.107597)"
       inkscape:label="Clip"
       id="g4913">
      <path
         inkscape:connector-curvature="0"
         id="path4905"
         d="M 80.141761,156.0774 A 53.99359,53.99359 0 0 0 44.882725,169.21672 V 156.08016 H 23.921659 v 107.98197 h 20.961066 v -54.8834 a 35.3035,35.3035 0 0 1 35.259036,-34.41127 35.3035,35.3035 0 0 1 29.082669,15.35686 V 164.58486 A 53.99359,53.99359 0 0 0 80.141761,156.0774 Z"
         style="fill:#000000;fill-opacity:1;stroke:#000000;stroke-width:1.03833818;stroke-miterlimit:4;stroke-dasharray:none;stroke-opacity:1" />
      <path
         inkscape:export-ydpi="90"
         inkscape:export-xdpi="90"
         inkscape:export-filename="C:\Users\fraipoha\Desktop\rect4274-7.png"
         inkscape:connector-curvature="0"
         id="path4907"
         d="M 64.84232,210.06977 A 14.536735,14.536735 0 0 0 79.37905,224.60651 14.536735,14.536735 0 0 0 93.915782,210.06977 14.536735,14.536735 0 0 0 79.37905,195.53304 14.536735,14.536735 0 0 0 64.84232,210.06977 Z"
         style="fill:#ff0000;fill-opacity:1;stroke:#ff0000;stroke-width:2.07667637;stroke-miterlimit:4;stroke-dasharray:none;stroke-opacity:1" />
      <rect
         y="207.44963"
         x="50.26944"
         height="69.561348"
         width="83.815735"
         id="rect4909"
         style="fill:none;fill-opacity:1;stroke:none;stroke-width:0.70555556;stroke-miterlimit:4;stroke-dasharray:none;stroke-opacity:1" />
      <path
         id="path4911"
         d="m 78.616335,264.06213 a 53.99359,53.99359 0 0 0 35.259035,-13.13932 v 13.13657 h 20.96107 V 156.0774 h -20.96107 v 54.88341 a 35.3035,35.3035 0 0 1 -35.259035,34.41126 35.3035,35.3035 0 0 1 -29.08267,-15.35685 v 25.53945 a 53.99359,53.99359 0 0 0 29.08267,8.50746 z"
         style="fill:#000000;fill-opacity:1;stroke:#000000;stroke-width:1.03833818;stroke-miterlimit:4;stroke-dasharray:none;stroke-opacity:1"
         inkscape:connector-curvature="0" />
    </g>
    <g
       inkscape:export-ydpi="26.57"
       inkscape:export-xdpi="26.57"
       inkscape:export-filename="/home/hans/work/RogueRope.github.io/assets/img/logo_176_70.png"
       transform="translate(16.978538,-40.513783)"
       id="g4923">
      <text
         xml:space="preserve"
         style="font-style:normal;font-variant:normal;font-weight:normal;font-stretch:normal;font-size:22.57777786px;line-height:1.25;font-family:Anurati;-inkscape-font-specification:Anurati;letter-spacing:0px;word-spacing:0px;fill:#000000;fill-opacity:1;stroke:none;stroke-width:0.26458332"
         x="0.90611279"
         y="174.16533"
         id="text4917"
         inkscape:export-xdpi="55.27"
         inkscape:export-ydpi="55.27"><tspan
           sodipodi:role="line"
           x="0.90611279"
           y="174.16533"
           style="font-style:normal;font-variant:normal;font-weight:normal;font-stretch:normal;font-size:35.98333359px;font-family:Comfortaa;-inkscape-font-specification:Comfortaa;letter-spacing:-2.64583325px;stroke-width:0.26458332"
           id="tspan4915">Rogue</tspan></text>
      <text
         xml:space="preserve"
         style="font-style:normal;font-variant:normal;font-weight:normal;font-stretch:normal;font-size:22.57777786px;line-height:1.25;font-family:Anurati;-inkscape-font-specification:Anurati;letter-spacing:0px;word-spacing:0px;fill:#000000;fill-opacity:1;stroke:none;stroke-width:0.26458332"
         x="21.593224"
         y="204.55702"
         id="text4921"><tspan
           sodipodi:role="line"
           id="tspan4919"
           x="21.593224"
           y="204.55702"
           style="font-style:normal;font-variant:normal;font-weight:normal;font-stretch:normal;font-size:35.98333359px;font-family:Comfortaa;-inkscape-font-specification:Comfortaa;letter-spacing:-2.64583325px;stroke-width:0.26458332">Rope</tspan></text>
    </g>
  </g>
</svg>
