<svg xmlns="http://www.w3.org/2000/svg" width="637.609" height="252.906" viewBox="0 0 168.701 66.915"><path d="M138.73.282a29.31 29.31 0 00-19.14 7.132V.284h-11.378v58.615h11.378V29.107a19.164 19.164 0 0119.14-18.68 19.164 19.164 0 0115.786 8.336V4.9A29.31 29.31 0 00138.729.282z" stroke="#000" stroke-width=".56345754"/><path d="M130.424 29.59a7.89 7.89 0 007.891 7.891 7.89 7.89 0 007.891-7.89 7.89 7.89 0 00-7.89-7.892 7.89 7.89 0 00-7.892 7.891z" fill="red" stroke="red" stroke-width="1.12745791"/><path d="M122.514 28.168h45.497v37.76h-45.497z" fill="none"/><path d="M137.901 58.899a29.31 29.31 0 0019.14-7.133v7.131h11.378V.282H157.04v29.792a19.164 19.164 0 01-19.14 18.68 19.164 19.164 0 01-15.787-8.337v13.864a29.31 29.31 0 0015.787 4.618z" stroke="#000" stroke-width=".56345754"/><g font-weight="400" font-size="35.983" font-family="Comfortaa" letter-spacing="-2.646" word-spacing="0" stroke-width=".265"><g aria-label="Rogue" style="line-height:1.25;-inkscape-font-specification:Anurati"><path d="M1.403 28.103q-.611 0-1.007-.396Q0 27.311 0 26.7V1.403Q0 .792.396.396.792 0 1.403 0h6.73q2.626 0 4.677 1.115 2.051 1.08 3.203 3.06Q17.2 6.116 17.2 8.671q0 2.447-1.187 4.354-1.152 1.907-3.203 2.987t-4.678 1.08H2.807V26.7q0 .611-.396 1.007-.396.396-1.008.396zm15.041 0q-.467 0-.755-.18-.252-.18-.468-.54l-6.909-11.01 2.807-.72 6.44 10.291q.54.864.18 1.511-.323.648-1.295.648zM2.807 14.393h5.325q1.835 0 3.239-.72 1.44-.755 2.267-2.05.827-1.296.827-2.951 0-1.763-.827-3.095-.828-1.367-2.267-2.123Q9.967 2.7 8.132 2.7H2.807zM28.163 28.283q-2.879 0-5.146-1.295-2.267-1.296-3.562-3.563-1.296-2.267-1.296-5.145 0-2.915 1.296-5.182 1.295-2.267 3.562-3.562 2.267-1.296 5.146-1.296 2.878 0 5.11 1.296 2.266 1.295 3.562 3.562 1.295 2.267 1.331 5.182 0 2.878-1.331 5.145-1.296 2.267-3.563 3.563-2.23 1.295-5.11 1.295zm0-2.519q2.087 0 3.742-.971 1.655-.972 2.59-2.663.936-1.691.936-3.85 0-2.16-.935-3.85-.936-1.728-2.591-2.7-1.655-.971-3.742-.971-2.087 0-3.743.972-1.655.971-2.626 2.698-.936 1.692-.936 3.85 0 2.16.936 3.85.971 1.692 2.626 2.664 1.656.971 3.743.971zM49.616 28.283q-2.843 0-5.038-1.26-2.195-1.295-3.454-3.562-1.223-2.267-1.223-5.181 0-2.951 1.295-5.218t3.562-3.526q2.267-1.296 5.146-1.296 2.915 0 5.146 1.296 2.267 1.259 3.526 3.526 1.295 2.267 1.331 5.218l-1.619.863q0 2.663-1.115 4.75-1.116 2.051-3.095 3.238-1.943 1.152-4.462 1.152zm.36 7.592q-2.843 0-5.002-1.08-2.159-1.043-3.562-2.878-.396-.432-.36-.935.072-.504.54-.828.468-.324 1.043-.216.576.108.9.54 1.043 1.295 2.663 2.087 1.655.792 3.814.792 2.015 0 3.634-.972 1.62-.972 2.555-2.735.972-1.763.972-4.138v-5.47l1.043-2.086 1.691.324v7.34q0 2.915-1.295 5.218-1.295 2.339-3.526 3.67-2.231 1.367-5.11 1.367zm-.072-10.11q2.123 0 3.742-.936 1.655-.972 2.591-2.663.936-1.691.936-3.886 0-2.195-.936-3.887-.936-1.727-2.59-2.662-1.62-.972-3.743-.972-2.123 0-3.778.972-1.656.935-2.591 2.662-.936 1.692-.936 3.887 0 2.195.936 3.886.935 1.691 2.59 2.663 1.656.935 3.779.935zM71.25 28.319q-2.555 0-4.57-1.044-2.016-1.08-3.203-3.13-1.151-2.051-1.151-5.002V9.787q0-.575.395-.971.396-.396.972-.396.612 0 1.007.396.396.396.396.971v9.356q0 2.231.828 3.67.864 1.44 2.303 2.16 1.475.72 3.31.72 1.763 0 3.167-.685 1.44-.683 2.267-1.87.827-1.188.827-2.7h1.98q-.108 2.267-1.26 4.067-1.115 1.763-3.023 2.806-1.907 1.008-4.246 1.008zm7.916-.216q-.612 0-1.008-.36-.36-.396-.36-1.043V9.787q0-.611.36-.971.396-.396 1.008-.396t1.007.396q.396.36.396.971V26.7q0 .647-.396 1.043-.396.36-1.007.36zM93.35 28.283q-2.914 0-5.181-1.26-2.231-1.295-3.526-3.562-1.26-2.267-1.26-5.181 0-2.951 1.188-5.182 1.223-2.267 3.346-3.562Q90.04 8.24 92.811 8.24q2.735 0 4.75 1.26 2.05 1.223 3.166 3.418 1.116 2.195 1.116 5.002 0 .575-.36.935-.36.324-.936.324H85.254v-2.303h15.581l-1.547 1.116q.036-2.087-.756-3.743-.791-1.655-2.267-2.59-1.44-.936-3.454-.936-2.051 0-3.598.972-1.548.971-2.411 2.698-.828 1.692-.828 3.887 0 2.195.936 3.886.971 1.691 2.626 2.663 1.656.971 3.815.971 1.295 0 2.59-.432 1.332-.468 2.123-1.151.396-.324.9-.324.504-.036.864.252.467.432.467.935.036.504-.395.864-1.188 1.008-3.023 1.691-1.835.648-3.526.648z" style="-inkscape-font-specification:Comfortaa"/></g><g aria-label="Rope" style="line-height:1.25;-inkscape-font-specification:Anurati"><path d="M22.09 58.495q-.611 0-1.007-.396-.396-.396-.396-1.008V31.795q0-.612.396-1.007.396-.396 1.007-.396h6.73q2.626 0 4.677 1.115 2.051 1.08 3.203 3.059 1.187 1.943 1.187 4.498 0 2.447-1.187 4.354-1.152 1.907-3.203 2.986-2.05 1.08-4.678 1.08h-5.325v9.607q0 .612-.396 1.008t-1.008.396zm15.041 0q-.467 0-.755-.18-.252-.18-.468-.54L29 46.765l2.807-.72 6.441 10.29q.54.864.18 1.512-.324.648-1.296.648zm-13.637-13.71h5.325q1.835 0 3.239-.72 1.44-.755 2.267-2.05.827-1.296.827-2.951 0-1.764-.827-3.095-.828-1.367-2.267-2.123-1.404-.756-3.239-.756h-5.325zM48.85 58.675q-2.879 0-5.146-1.296-2.267-1.295-3.562-3.562-1.296-2.267-1.296-5.146 0-2.914 1.296-5.181 1.295-2.267 3.562-3.563 2.267-1.295 5.146-1.295 2.878 0 5.11 1.295 2.266 1.296 3.562 3.563 1.295 2.267 1.331 5.181 0 2.879-1.331 5.146-1.296 2.267-3.563 3.562-2.23 1.296-5.11 1.296zm0-2.52q2.087 0 3.742-.97 1.655-.972 2.59-2.664.936-1.69.936-3.85 0-2.159-.935-3.85-.936-1.727-2.591-2.699-1.655-.971-3.742-.971-2.087 0-3.743.971-1.655.972-2.626 2.699-.936 1.691-.936 3.85 0 2.16.936 3.85.971 1.692 2.626 2.663 1.656.972 3.743.972zM63.035 66.915q-.648 0-1.044-.396-.36-.36-.36-1.008V48.527q.036-2.806 1.332-5.037 1.331-2.267 3.562-3.563 2.267-1.295 5.074-1.295 2.878 0 5.145 1.331 2.267 1.296 3.563 3.563 1.331 2.267 1.331 5.145 0 2.843-1.295 5.11-1.26 2.267-3.455 3.598-2.195 1.296-4.966 1.296-2.41 0-4.39-1.008-1.943-1.043-3.13-2.735v10.58q0 .647-.396 1.007-.36.396-.971.396zm8.564-10.76q2.087 0 3.742-.97 1.655-.972 2.59-2.664.972-1.727.972-3.85 0-2.159-.971-3.85-.936-1.691-2.591-2.663-1.655-1.007-3.742-1.007-2.051 0-3.707 1.007-1.655.972-2.59 2.663-.936 1.691-.936 3.85 0 2.123.936 3.85.935 1.692 2.59 2.663 1.656.972 3.707.972zM93.35 58.675q-2.914 0-5.181-1.26-2.231-1.295-3.526-3.562-1.26-2.267-1.26-5.182 0-2.95 1.188-5.181 1.223-2.267 3.346-3.563 2.123-1.295 4.894-1.295 2.735 0 4.75 1.26 2.05 1.223 3.166 3.418 1.116 2.195 1.116 5.001 0 .576-.36.936-.36.324-.936.324H85.254v-2.303h15.581l-1.547 1.115q.036-2.087-.756-3.742-.791-1.655-2.267-2.59-1.44-.936-3.454-.936-2.051 0-3.598.971-1.548.972-2.411 2.699-.828 1.691-.828 3.886 0 2.195.936 3.886.971 1.692 2.626 2.663 1.656.972 3.815.972 1.295 0 2.59-.432 1.332-.468 2.123-1.152.396-.323.9-.323.504-.036.864.252.467.431.467.935.036.504-.395.864-1.188 1.007-3.023 1.69-1.835.649-3.526.649z" style="-inkscape-font-specification:Comfortaa"/></g></g><g><path d="M138.73.282a29.31 29.31 0 00-19.14 7.132V.284h-11.378v58.615h11.378V29.107a19.164 19.164 0 0119.14-18.68 19.164 19.164 0 0115.786 8.336V4.9A29.31 29.31 0 00138.729.282z" stroke="#000" stroke-width=".56345754"/><path d="M130.424 29.59a7.89 7.89 0 007.891 7.891 7.89 7.89 0 007.891-7.89 7.89 7.89 0 00-7.89-7.892 7.89 7.89 0 00-7.892 7.891z" fill="red" stroke="red" stroke-width="1.12745791"/><path d="M122.514 28.168h45.497v37.76h-45.497z" fill="none"/><path d="M137.901 58.899a29.31 29.31 0 0019.14-7.133v7.131h11.378V.282H157.04v29.792a19.164 19.164 0 01-19.14 18.68 19.164 19.164 0 01-15.787-8.337v13.864a29.31 29.31 0 0015.787 4.618z" stroke="#000" stroke-width=".56345754"/></g><g font-weight="400" font-size="35.983" font-family="Comfortaa" letter-spacing="-2.646" word-spacing="0" stroke-width=".265"><g aria-label="Rogue" style="line-height:1.25;-inkscape-font-specification:Anurati"><path d="M1.403 28.103q-.611 0-1.007-.396Q0 27.311 0 26.7V1.403Q0 .792.396.396.792 0 1.403 0h6.73q2.626 0 4.677 1.115 2.051 1.08 3.203 3.06Q17.2 6.116 17.2 8.671q0 2.447-1.187 4.354-1.152 1.907-3.203 2.987t-4.678 1.08H2.807V26.7q0 .611-.396 1.007-.396.396-1.008.396zm15.041 0q-.467 0-.755-.18-.252-.18-.468-.54l-6.909-11.01 2.807-.72 6.44 10.291q.54.864.18 1.511-.323.648-1.295.648zM2.807 14.393h5.325q1.835 0 3.239-.72 1.44-.755 2.267-2.05.827-1.296.827-2.951 0-1.763-.827-3.095-.828-1.367-2.267-2.123Q9.967 2.7 8.132 2.7H2.807zM28.163 28.283q-2.879 0-5.146-1.295-2.267-1.296-3.562-3.563-1.296-2.267-1.296-5.145 0-2.915 1.296-5.182 1.295-2.267 3.562-3.562 2.267-1.296 5.146-1.296 2.878 0 5.11 1.296 2.266 1.295 3.562 3.562 1.295 2.267 1.331 5.182 0 2.878-1.331 5.145-1.296 2.267-3.563 3.563-2.23 1.295-5.11 1.295zm0-2.519q2.087 0 3.742-.971 1.655-.972 2.59-2.663.936-1.691.936-3.85 0-2.16-.935-3.85-.936-1.728-2.591-2.7-1.655-.971-3.742-.971-2.087 0-3.743.972-1.655.971-2.626 2.698-.936 1.692-.936 3.85 0 2.16.936 3.85.971 1.692 2.626 2.664 1.656.971 3.743.971zM49.616 28.283q-2.843 0-5.038-1.26-2.195-1.295-3.454-3.562-1.223-2.267-1.223-5.181 0-2.951 1.295-5.218t3.562-3.526q2.267-1.296 5.146-1.296 2.915 0 5.146 1.296 2.267 1.259 3.526 3.526 1.295 2.267 1.331 5.218l-1.619.863q0 2.663-1.115 4.75-1.116 2.051-3.095 3.238-1.943 1.152-4.462 1.152zm.36 7.592q-2.843 0-5.002-1.08-2.159-1.043-3.562-2.878-.396-.432-.36-.935.072-.504.54-.828.468-.324 1.043-.216.576.108.9.54 1.043 1.295 2.663 2.087 1.655.792 3.814.792 2.015 0 3.634-.972 1.62-.972 2.555-2.735.972-1.763.972-4.138v-5.47l1.043-2.086 1.691.324v7.34q0 2.915-1.295 5.218-1.295 2.339-3.526 3.67-2.231 1.367-5.11 1.367zm-.072-10.11q2.123 0 3.742-.936 1.655-.972 2.591-2.663.936-1.691.936-3.886 0-2.195-.936-3.887-.936-1.727-2.59-2.662-1.62-.972-3.743-.972-2.123 0-3.778.972-1.656.935-2.591 2.662-.936 1.692-.936 3.887 0 2.195.936 3.886.935 1.691 2.59 2.663 1.656.935 3.779.935zM71.25 28.319q-2.555 0-4.57-1.044-2.016-1.08-3.203-3.13-1.151-2.051-1.151-5.002V9.787q0-.575.395-.971.396-.396.972-.396.612 0 1.007.396.396.396.396.971v9.356q0 2.231.828 3.67.864 1.44 2.303 2.16 1.475.72 3.31.72 1.763 0 3.167-.685 1.44-.683 2.267-1.87.827-1.188.827-2.7h1.98q-.108 2.267-1.26 4.067-1.115 1.763-3.023 2.806-1.907 1.008-4.246 1.008zm7.916-.216q-.612 0-1.008-.36-.36-.396-.36-1.043V9.787q0-.611.36-.971.396-.396 1.008-.396t1.007.396q.396.36.396.971V26.7q0 .647-.396 1.043-.396.36-1.007.36zM93.35 28.283q-2.914 0-5.181-1.26-2.231-1.295-3.526-3.562-1.26-2.267-1.26-5.181 0-2.951 1.188-5.182 1.223-2.267 3.346-3.562Q90.04 8.24 92.811 8.24q2.735 0 4.75 1.26 2.05 1.223 3.166 3.418 1.116 2.195 1.116 5.002 0 .575-.36.935-.36.324-.936.324H85.254v-2.303h15.581l-1.547 1.116q.036-2.087-.756-3.743-.791-1.655-2.267-2.59-1.44-.936-3.454-.936-2.051 0-3.598.972-1.548.971-2.411 2.698-.828 1.692-.828 3.887 0 2.195.936 3.886.971 1.691 2.626 2.663 1.656.971 3.815.971 1.295 0 2.59-.432 1.332-.468 2.123-1.151.396-.324.9-.324.504-.036.864.252.467.432.467.935.036.504-.395.864-1.188 1.008-3.023 1.691-1.835.648-3.526.648z" style="-inkscape-font-specification:Comfortaa"/></g><g aria-label="Rope" style="line-height:1.25;-inkscape-font-specification:Anurati"><path d="M22.09 58.495q-.611 0-1.007-.396-.396-.396-.396-1.008V31.795q0-.612.396-1.007.396-.396 1.007-.396h6.73q2.626 0 4.677 1.115 2.051 1.08 3.203 3.059 1.187 1.943 1.187 4.498 0 2.447-1.187 4.354-1.152 1.907-3.203 2.986-2.05 1.08-4.678 1.08h-5.325v9.607q0 .612-.396 1.008t-1.008.396zm15.041 0q-.467 0-.755-.18-.252-.18-.468-.54L29 46.765l2.807-.72 6.441 10.29q.54.864.18 1.512-.324.648-1.296.648zm-13.637-13.71h5.325q1.835 0 3.239-.72 1.44-.755 2.267-2.05.827-1.296.827-2.951 0-1.764-.827-3.095-.828-1.367-2.267-2.123-1.404-.756-3.239-.756h-5.325zM48.85 58.675q-2.879 0-5.146-1.296-2.267-1.295-3.562-3.562-1.296-2.267-1.296-5.146 0-2.914 1.296-5.181 1.295-2.267 3.562-3.563 2.267-1.295 5.146-1.295 2.878 0 5.11 1.295 2.266 1.296 3.562 3.563 1.295 2.267 1.331 5.181 0 2.879-1.331 5.146-1.296 2.267-3.563 3.562-2.23 1.296-5.11 1.296zm0-2.52q2.087 0 3.742-.97 1.655-.972 2.59-2.664.936-1.69.936-3.85 0-2.159-.935-3.85-.936-1.727-2.591-2.699-1.655-.971-3.742-.971-2.087 0-3.743.971-1.655.972-2.626 2.699-.936 1.691-.936 3.85 0 2.16.936 3.85.971 1.692 2.626 2.663 1.656.972 3.743.972zM63.035 66.915q-.648 0-1.044-.396-.36-.36-.36-1.008V48.527q.036-2.806 1.332-5.037 1.331-2.267 3.562-3.563 2.267-1.295 5.074-1.295 2.878 0 5.145 1.331 2.267 1.296 3.563 3.563 1.331 2.267 1.331 5.145 0 2.843-1.295 5.11-1.26 2.267-3.455 3.598-2.195 1.296-4.966 1.296-2.41 0-4.39-1.008-1.943-1.043-3.13-2.735v10.58q0 .647-.396 1.007-.36.396-.971.396zm8.564-10.76q2.087 0 3.742-.97 1.655-.972 2.59-2.664.972-1.727.972-3.85 0-2.159-.971-3.85-.936-1.691-2.591-2.663-1.655-1.007-3.742-1.007-2.051 0-3.707 1.007-1.655.972-2.59 2.663-.936 1.691-.936 3.85 0 2.123.936 3.85.935 1.692 2.59 2.663 1.656.972 3.707.972zM93.35 58.675q-2.914 0-5.181-1.26-2.231-1.295-3.526-3.562-1.26-2.267-1.26-5.182 0-2.95 1.188-5.181 1.223-2.267 3.346-3.563 2.123-1.295 4.894-1.295 2.735 0 4.75 1.26 2.05 1.223 3.166 3.418 1.116 2.195 1.116 5.001 0 .576-.36.936-.36.324-.936.324H85.254v-2.303h15.581l-1.547 1.115q.036-2.087-.756-3.742-.791-1.655-2.267-2.59-1.44-.936-3.454-.936-2.051 0-3.598.971-1.548.972-2.411 2.699-.828 1.691-.828 3.886 0 2.195.936 3.886.971 1.692 2.626 2.663 1.656.972 3.815.972 1.295 0 2.59-.432 1.332-.468 2.123-1.152.396-.323.9-.323.504-.036.864.252.467.431.467.935.036.504-.395.864-1.188 1.007-3.023 1.69-1.835.649-3.526.649z" style="-inkscape-font-specification:Comfortaa"/></g></g></svg>